<?xml version="1.0" encoding="utf-8"?>
<!-- Generator: Adobe Illustrator 26.3.1, SVG Export Plug-In . SVG Version: 6.00 Build 0)  -->
<svg version="1.1" id="Ebene_1" xmlns="http://www.w3.org/2000/svg" xmlns:xlink="http://www.w3.org/1999/xlink" x="0px" y="0px"
	 viewBox="0 0 221.1 45.3" style="enable-background:new 0 0 221.1 45.3;" xml:space="preserve">
<style type="text/css">
	.st0{fill:#C30012;}
	.st1{clip-path:url(#SVGID_00000036957947835428216770000014574528440627111077_);}
	.st2{fill:#1D1D1B;}
	.st3{clip-path:url(#SVGID_00000066480353646719888600000007201156379535145358_);}
	.st4{clip-path:url(#SVGID_00000023263527975596075750000008658415196941412251_);}
	.st5{fill:#FFFFFF;}
	.st6{clip-path:url(#SVGID_00000127753789207632933370000009469513493265620610_);}
	.st7{clip-path:url(#SVGID_00000173126384165476606420000015885097802175755951_);}
</style>
<g id="Ebene_2_00000072981371361008504280000013340755009763077303_">
	<rect class="st0" width="221.1" height="45.3"/>
	<g>
		<defs>
			<rect id="SVGID_1_" width="221.1" height="45.3"/>
		</defs>
		<clipPath id="SVGID_00000127749137242184008940000011516934469774390147_">
			<use xlink:href="#SVGID_1_"  style="overflow:visible;"/>
		</clipPath>
		<g style="clip-path:url(#SVGID_00000127749137242184008940000011516934469774390147_);">
			<path class="st2" d="M36.2,39.2h8.5c0.2,0,0.5,0,0.7,0h-9.9C35.8,39.3,36,39.3,36.2,39.2"/>
		</g>
	</g>
	<polygon class="st2" points="118.6,6.8 115.1,26.2 111.2,6.8 103.7,6.8 97.4,39.2 103.8,39.2 107.7,21.1 111.4,39.2 118.8,39.2 
		122.7,21.4 126.5,39.2 133,39.2 126.3,6.8 	"/>
	<polygon class="st2" points="96.3,11.9 96.3,6.8 78,6.8 78.1,11.9 83.5,11.9 83.5,39.2 90.7,39.2 90.7,11.9 	"/>
	<polygon class="st2" points="178.1,6.8 178.1,20.5 173.5,6.8 165,6.8 165,39.2 171.6,39.2 171.6,22.5 177.5,39.2 185.1,39.2 
		185.1,6.8 	"/>
	<path class="st2" d="M146.7,14.8l-2.1,12.1h4.9l-2.2-12.2L146.7,14.8z M152.5,6.8l6,32.5h-6.9l-1.3-6.8h-6.6l-1.7,6.8h-6.7
		l6.1-32.5H152.5z"/>
	<polygon class="st2" points="207.3,6.8 207.3,20.5 202.7,6.8 194.2,6.8 194.2,39.2 200.8,39.2 200.8,22.5 206.7,39.2 214.3,39.2 
		214.3,6.8 	"/>
	<g>
		<defs>
			<rect id="SVGID_00000059268302516833995260000007942932908990565012_" width="221.1" height="45.3"/>
		</defs>
		<clipPath id="SVGID_00000081627836212145399480000007855328235350496690_">
			<use xlink:href="#SVGID_00000059268302516833995260000007942932908990565012_"  style="overflow:visible;"/>
		</clipPath>
		<g style="clip-path:url(#SVGID_00000081627836212145399480000007855328235350496690_);">
			<path class="st2" d="M53.3,33.6V12.4c0-2.9-2.2-5.3-5-5.6h-9.9c-2.8,0.3-5,2.8-5,5.6v21.3c0,2.9,2.2,5.3,5,5.6h9.9
				C51.1,38.9,53.3,36.5,53.3,33.6 M47.6,6.8h-8.5c-0.2,0-0.5,0-0.7,0h9.9C48.1,6.8,47.8,6.8,47.6,6.8 M41.5,33.6
				c-0.8,0-1.4-0.6-1.4-1.4c0,0,0,0,0,0V13.8c0-0.8,0.6-1.4,1.4-1.4h3.7c0.8,0,1.4,0.6,1.4,1.4v18.4c0,0.8-0.6,1.4-1.4,1.4
				c0,0,0,0,0,0H41.5z"/>
		</g>
	</g>
	<polygon class="st2" points="28.4,6.8 21.4,6.8 16.8,20.9 16.2,20.9 16.2,6.8 9.6,6.8 9.7,39.2 16.5,39.2 16.5,23.5 17.2,23.6 
		22,39.2 29.2,39.2 23.1,21.5 	"/>
	<g>
		<defs>
			<rect id="SVGID_00000178191510817999440620000005638013010464129959_" width="221.1" height="45.3"/>
		</defs>
		<clipPath id="SVGID_00000060008745441810929970000013852799032299792000_">
			<use xlink:href="#SVGID_00000178191510817999440620000005638013010464129959_"  style="overflow:visible;"/>
		</clipPath>
		<g style="clip-path:url(#SVGID_00000060008745441810929970000013852799032299792000_);">
			<path class="st2" d="M59.1,9.4c-0.5,1-0.6,2.1-0.4,3.1c0,0,8.3,17.1,8.9,18.6c0.6,1.5,0.9,1.5,0.8,2.2s-1.6,1-1.6,1h-8.2
				l-0.2,4.8c0,0,12.9,0.2,14.4,0c1.1-0.1,2.1-0.6,2.9-1.4c0.6-0.6,1.1-1.4,1.2-2.3c0.1-0.7,0.1-1.4-0.1-2.1c0,0-9.2-18.4-9.5-18.9
				c-0.3-0.6-0.5-1.3-0.5-2c0.1-0.6,1-0.5,1-0.5H75V6.8h-9.2c-1,0-2,0.1-3,0.2C61.3,7.3,60,8.2,59.1,9.4"/>
		</g>
	</g>
	<polygon class="st5" points="115.8,6.8 112.2,26.2 108.4,6.8 100.8,6.8 94.6,39.2 101,39.2 104.9,21.1 108.6,39.2 115.9,39.2 
		119.9,21.4 123.6,39.2 130.1,39.2 123.5,6.8 	"/>
	<polygon class="st5" points="93.5,11.9 93.5,6.8 75.1,6.8 75.2,11.9 80.6,11.9 80.6,39.2 87.9,39.2 87.9,11.9 	"/>
	<polygon class="st5" points="175.2,6.8 175.2,20.5 170.7,6.8 162.1,6.8 162.1,39.2 168.8,39.2 168.8,22.5 174.7,39.2 182.2,39.2 
		182.2,6.8 	"/>
	<path class="st5" d="M143.9,14.8l-2.1,12.1h4.9l-2.2-12.2L143.9,14.8z M149.7,6.8l6,32.5h-6.9l-1.3-6.8h-6.6l-1.7,6.8h-6.8
		l6.1-32.5H149.7z"/>
	<polygon class="st5" points="204.4,6.8 204.4,20.5 199.9,6.8 191.3,6.8 191.3,39.2 197.9,39.2 197.9,22.5 203.9,39.2 211.4,39.2 
		211.4,6.8 	"/>
	<g>
		<defs>
			<rect id="SVGID_00000026130791105257662320000001324955198007955604_" width="221.1" height="45.3"/>
		</defs>
		<clipPath id="SVGID_00000175291410270356912630000009186265066901227661_">
			<use xlink:href="#SVGID_00000026130791105257662320000001324955198007955604_"  style="overflow:visible;"/>
		</clipPath>
		<g style="clip-path:url(#SVGID_00000175291410270356912630000009186265066901227661_);">
			<path class="st5" d="M50.4,33.6V12.4c0-2.9-2.1-5.3-5-5.6h-9.9c-2.9,0.3-5,2.7-5,5.6v21.3c0,2.9,2.1,5.3,5,5.6h9.9
				C48.3,38.9,50.5,36.5,50.4,33.6 M44.8,6.8h-8.5c-0.2,0-0.5,0-0.7,0h9.9C45.2,6.8,45,6.8,44.8,6.8 M38.7,33.6
				c-0.8,0-1.4-0.6-1.4-1.4c0,0,0,0,0,0V13.8c0-0.8,0.6-1.4,1.4-1.4h3.7c0.8,0,1.4,0.6,1.4,1.4v18.4c0,0.8-0.6,1.4-1.4,1.4
				c0,0,0,0,0,0H38.7z"/>
		</g>
	</g>
	<polygon class="st5" points="25.6,6.8 18.6,6.8 14,20.9 13.4,20.9 13.4,6.8 6.8,6.8 6.9,39.2 13.6,39.2 13.6,23.5 14.4,23.6 
		19.1,39.2 26.4,39.2 20.2,21.5 	"/>
	<g>
		<defs>
			<rect id="SVGID_00000106119042039341452120000003106363766395602051_" width="221.1" height="45.3"/>
		</defs>
		<clipPath id="SVGID_00000136377133500736494110000004648250943237598881_">
			<use xlink:href="#SVGID_00000106119042039341452120000003106363766395602051_"  style="overflow:visible;"/>
		</clipPath>
		<g style="clip-path:url(#SVGID_00000136377133500736494110000004648250943237598881_);">
			<path class="st5" d="M56.2,9.4c-0.5,1-0.6,2.1-0.4,3.1c0,0,8.2,17.1,8.9,18.6c0.6,1.5,0.9,1.5,0.8,2.2s-1.6,1-1.6,1h-8.3
				l-0.2,4.8c0,0,12.9,0.2,14.4,0c1.1-0.1,2.1-0.6,2.9-1.4c0.7-0.6,1.1-1.4,1.3-2.3c0.1-0.7,0.1-1.4-0.1-2.1c0,0-9.3-18.4-9.5-18.9
				c-0.3-0.6-0.5-1.3-0.5-2c0.1-0.6,1-0.5,1-0.5h7.4V6.8H63c-1,0-2,0.1-3,0.2C58.5,7.3,57.2,8.2,56.2,9.4"/>
		</g>
	</g>
</g>
</svg>
